<?xml version="1.0" encoding="UTF-8"?>
<svg version="1.1" xmlns="http://www.w3.org/2000/svg" width="64" height="64">
<path d="M0 0 C6.17039501 4.45310657 10.79994396 10.09956111 12.51953125 17.57421875 C13.48236754 25.12115615 12.95901415 32.18980839 8.53515625 38.59375 C6.03416203 41.65731504 3.25411351 43.91270597 0.09765625 46.28125 C-5.42460262 50.46680476 -8.63142707 55.46418485 -11.96484375 61.46875 C-14.296875 61.25390625 -14.296875 61.25390625 -16.96484375 60.46875 C-18.4140625 58.46484375 -18.4140625 58.46484375 -19.65234375 55.90625 C-21.93981364 51.75097524 -24.17785431 49.1996056 -27.96484375 46.34375 C-34.66912327 41.27515313 -38.75906 36.94289614 -40.46484375 28.53125 C-41.38684545 21.06115455 -40.33571339 14.63937715 -36.29296875 8.16796875 C-27.65861833 -2.87892076 -12.79844874 -6.69825354 0 0 Z M-14.96484375 7.46875 C-15.62484375 8.5825 -16.28484375 9.69625 -16.96484375 10.84375 C-17.33609375 11.47023438 -17.70734375 12.09671875 -18.08984375 12.7421875 C-19.11552723 14.44347667 -19.11552723 14.44347667 -18.96484375 16.46875 C-23.41984375 16.96375 -23.41984375 16.96375 -27.96484375 17.46875 C-27.96484375 18.78875 -27.96484375 20.10875 -27.96484375 21.46875 C-27.30484375 22.005 -26.64484375 22.54125 -25.96484375 23.09375 C-22.8339443 26.81169309 -23.64374114 30.79492313 -23.96484375 35.46875 C-22.97484375 35.79875 -21.98484375 36.12875 -20.96484375 36.46875 C-20.03671875 35.953125 -19.10859375 35.4375 -18.15234375 34.90625 C-14.96484375 33.46875 -14.96484375 33.46875 -11.83984375 34.21875 C-10.89109375 34.63125 -9.94234375 35.04375 -8.96484375 35.46875 C-7.63572693 35.81851758 -6.30401636 36.15971017 -4.96484375 36.46875 C-4.09057802 33.73666958 -4.00205344 31.95711679 -4.21484375 29.03125 C-3.96484375 25.46875 -3.96484375 25.46875 -1.46484375 22.53125 C-0.22734375 21.5103125 -0.22734375 21.5103125 1.03515625 20.46875 C0.70515625 19.47875 0.37515625 18.48875 0.03515625 17.46875 C-2.93484375 17.13875 -5.90484375 16.80875 -8.96484375 16.46875 C-9.25359375 15.72625 -9.54234375 14.98375 -9.83984375 14.21875 C-10.78787019 11.90135203 -11.81330286 9.68957885 -12.96484375 7.46875 C-13.62484375 7.46875 -14.28484375 7.46875 -14.96484375 7.46875 Z " fill="#000000" transform="translate(45.96484375,2.53125)"/>
<path d="M0 0 C0.66 0 1.32 0 2 0 C2.391875 0.78375 2.78375 1.5675 3.1875 2.375 C5.62451318 5.90446737 7.90626822 6.15035756 12 7 C11.01 8.2684375 11.01 8.2684375 10 9.5625 C7.74727595 13.43436947 7.64822304 15.60278797 8 20 C7.40832031 19.91621094 6.81664063 19.83242188 6.20703125 19.74609375 C1.90060543 19.19110576 -1.75552644 18.76773348 -6 20 C-5.9175 18.96875 -5.835 17.9375 -5.75 16.875 C-6.03807561 12.40982801 -7.28644717 10.47673956 -10 7 C-9.44570313 6.82984375 -8.89140625 6.6596875 -8.3203125 6.484375 C-3.74877023 5.09174014 -3.74877023 5.09174014 -0.5 1.8125 C-0.335 1.214375 -0.17 0.61625 0 0 Z " fill="#000000" transform="translate(31,15)"/>
</svg>
